<svg xmlns="http://www.w3.org/2000/svg" viewBox="0 0 1750.2 594.37"><defs><style>.cls-1{fill:#31ab5a;opacity:0.78;}.cls-18,.cls-2,.cls-33,.cls-34{fill:none;stroke-miterlimit:10;}.cls-2{stroke:#151539;}.cls-18,.cls-2{stroke-width:0.78px;}.cls-3{fill:#c898ae;}.cls-4{fill:#d9d8d1;}.cls-5{fill:#b6b4ac;}.cls-6{fill:#f4c888;}.cls-7{fill:#cdd8e6;}.cls-8{fill:#db84b7;}.cls-9{fill:#d2d0c4;}.cls-10{fill:#151539;}.cls-11{fill:#e8e6d9;}.cls-12{fill:#d9b492;}.cls-13{fill:#fff;}.cls-14{fill:#f0575a;}.cls-15{fill:#a69283;}.cls-16{fill:#046937;}.cls-17{fill:#5cc092;}.cls-18{stroke:#fff;}.cls-19{fill:#998a31;}.cls-20{fill:#fed925;}.cls-21{fill:#544842;}.cls-22{fill:#e54d59;}.cls-23{fill:#a9b5bf;}.cls-24{fill:#dfb28b;}.cls-25{fill:#cc9b5a;}.cls-26{fill:#410099;}.cls-27{fill:#199246;}.cls-28{fill:#ebc19c;}.cls-29{fill:#78823b;}.cls-30{fill:#868864;}.cls-31{fill:#232321;}.cls-32{fill:#231f20;}.cls-33,.cls-34{stroke:#231f20;}.cls-33{stroke-width:0.83px;}.cls-34{stroke-width:2px;}</style></defs><title>27-05-2Asset 3</title><g id="Layer_2" data-name="Layer 2"><g id="Layer_2-2" data-name="Layer 2"><path class="cls-1" d="M1599.39,547.2H1276.2c4.66-14.3,10.24-28,24.77-35.9,8.27-4,9.42-13.58,3-29.1,1.43-13.58,4.6-24.65,22.41-14.72,6.91,6.67,11.79,3.58,15.39-5.69,15.17-19.88,37.54-23.62,73.58,3.35,14.65,21,36.78,17,63.55-2.34,17.61-3.15,33,5.38,44.48,35.45,16.5,15.27,34.36,18.14,54.19,3.35,8.05.11,17.12,2.89,28.09,10.7v34.9Z"/><line class="cls-2" x1="1747.3" y1="548.29" x2="1372.44" y2="548.29"/><path class="cls-3" d="M1.13,569.64v23.47s340.67,6.73,341.71-10.93S1.13,569.64,1.13,569.64Z"/><path class="cls-3" d="M677.77,561.63c-107-.87-279.29-.25-280.06,12.7-.79,13.46,186.24,14.47,292.17,14,107,.87,279.29.25,280-12.7C970.73,562.13,783.7,561.12,677.77,561.63Z"/><path class="cls-3" d="M1458,559.22c-107-.86-279.29-.24-280.06,12.7-.79,13.46,186.24,14.47,292.17,14,107,.86,279.29.24,280-12.7C1751,559.73,1564,558.72,1458,559.22Z"/><path class="cls-4" d="M1418.58,227.54c-2.08,22.07-17.09,38.71-33.53,37.16S1357,244,1359,221.93s17.09-38.7,33.53-37.16S1420.66,205.47,1418.58,227.54Z"/><path class="cls-5" d="M1402.92,226.06c-1,10.46-8.1,18.35-15.89,17.61s-13.31-9.8-12.33-20.26,8.1-18.35,15.89-17.61S1403.9,215.6,1402.92,226.06Z"/><path class="cls-6" d="M1412.28,315.83s25.6,27.73,34.25,34.82,18.77,11.11,22.48,11.61,7.07-3.06,7.07-3.06-5.4-1.16-6.49-2.08-1.24-3.67-3.68-6.1-5.55-8.79-5.55-8.79-4.82-7.12-8.5-7.56-6.56-3.05-11.12-8.77-14-21.91-14-21.91Z"/><path class="cls-7" d="M1434.6,312.82s-10.11,9.05-16.19,9.58c0,0-38.42-28.54-36.85-41.87s39.54-54.19,55.06-57.28,12.24,23.18,4.34,35.64-27.88,24-27.88,24Z"/><path class="cls-2" d="M1445.67,233.82s8.1,2.33-6.8,28"/><path class="cls-8" d="M1347,292.44,1608.12,410.8,1654,430.24s27.63,6.05,24.7,27.41-4.7,33.57-4.7,33.57l-8.22-3.43s6.47-27.56,4.12-35.2-19.57-15.87-23.59-18.21-38.69,60.17-38.69,60.17l-7-3.32,34.08-59.2-32.32-13.77-4.7,80.28h-7.76l1.26-84.75L1347,299.51Z"/><path class="cls-9" d="M1499.9,442.63c-.86,4.29-.86,20.7-.86,20.7l-26.94,2.48s-.61-9.44-2.24-13.74c-1.22-3.21-42-38.16-70.44-55.9-9.58-6-17.76-10-22.59-10.21-18.15-.81-2-23.77-.17-26.28l.17-.23,1.62-.52,35.75-11.5.07,0s82.62,75.46,85.63,84.91C1499.9,432.32,1500.75,438.33,1499.9,442.63Z"/><path class="cls-10" d="M1414.27,347.41s-8.41,31.79-14.85,48.76c-9.58-6-17.76-10-22.59-10.21-18.15-.81-2-23.77-.17-26.28l1.79-.75c13.39-5.43,34.4-11.13,35.75-11.5Z"/><path class="cls-10" d="M1469.82,463.05l29.78-4.2s-6.28,40.82-7.85,54.16-5.1,32.18-4.32,35.71,17.47,18,17.47,18-15.31,1.57-20.8,0-20-7.06-20-7.06,4.71-25.48,4.32-33.75C1467.9,515.38,1469.82,463.05,1469.82,463.05Z"/><path class="cls-11" d="M1414.27,347.42s-75.33,101.39-79.66,110.3c0,0-3.52,4.95-7.1,7.47s-14.9,14.41-14.9,14.41l-20.38-16s6.08-7.27,7.86-11.5,44.09-86.07,45.57-109c1.23-19.17,20-10.69,20-10.69Z"/><path class="cls-12" d="M1439.26,291.7c-1,2.65-2.39,5.89-3.92,9.45-8,18.64-21.07,46.26-21.07,46.26s-45.6,3.53-65-14c0,0,4-16.6,4.8-30.81a71.57,71.57,0,0,0,0-8c-.92-15-6.15-68.4-4.59-76.53,1-5.35,13-8.05,26.67-7.32s42.46,5.6,54.24,6c7.55.27,13.75,8.73,18.63,13S1445.73,275.2,1439.26,291.7Z"/><path class="cls-11" d="M1435.34,301.15c-8,18.64-21.07,46.26-21.07,46.26s-45.6,3.53-65-14c0,0,4-16.6,4.8-30.81,23,1.79,27.44-14.15,27.44-14.15Z"/><path class="cls-10" d="M1417.38,159.77s8.73,9.48.56,17.27-18,10.17-19.11,13.29,1.55,11.54,1.55,11.54-6.12-6.87-11.58-12.15-10.38-20.12,3.71-24.8A101.44,101.44,0,0,1,1417.38,159.77Z"/><path class="cls-6" d="M1415.77,170.59s8.06,21.69,4.5,25.62-8.44,6.72-7.76,10.13a51.48,51.48,0,0,0,2.08,7l-2.22,8.89-8.91-6.09-3.25-6.14s1-5.68.17-8.18-7.54-3.33-7-7.05,2.59-3.43,2.59-3.43-8.1-17.48,8.14-22.54C1404.13,168.85,1414,165.4,1415.77,170.59Z"/><path class="cls-13" d="M1400.21,210.05s-3.35,2.47-1.13,7.57,9,11.75,9,11.75l4.34-7.09S1400.4,213.46,1400.21,210.05Z"/><path class="cls-13" d="M1413.4,210l-1.08,12.54,6.77,2.5S1419.61,209,1413.4,210Z"/><path class="cls-2" d="M1414.41,183.65s4.75,4.06-.71,4.73"/><path class="cls-10" d="M1414.55,158.2s3.84,9.92-.85,14.1-19.23,4.16-19.66,11.35c0,0-6.94-13.18,4.28-19.19s9-10,9-10Z"/><path class="cls-10" d="M1418.21,159.77s8.73,9.48.56,17.27-18,10.17-19.11,13.29,1.55,11.54,1.55,11.54-6.12-6.87-11.58-12.15-10.38-20.12,3.71-24.8A101.44,101.44,0,0,1,1418.21,159.77Z"/><path class="cls-6" d="M1400.21,210.05s1.81-5.68,1-8.18-7.54-3.33-7-7.05,2.59-3.43,2.59-3.43-8.1-17.48,8.13-22.54c0,0,9.87-3.45,11.65,1.74,0,0,8.06,21.69,4.5,25.62s-8.45,6.72-7.76,10.13-6.07,5.39-6.07,5.39"/><path class="cls-2" d="M1415.24,183.65s4.75,4.06-.71,4.73"/><path class="cls-10" d="M1422.26,199.2c1.71-3.14-.41-9.09-.41-9.09l-.82,0v0l-4.69.08c-4.5.07-10.18,4.41-13.51,4.78-3.14-.36-6.48-4.78-6.48-4.78a2.9,2.9,0,0,0-.1.88c-.45-.52-.73-.88-.73-.88-1.15,4,7.76,9,6.87,12.92s4.28,3.66,4.89,8.62,2.79,14.33,9.06,13.34,7.25-8.83,7.83-15S1420.55,202.33,1422.26,199.2Z"/><path class="cls-10" d="M1415.38,158.2s3.84,9.92-.85,14.1-19.23,4.16-19.66,11.35c0,0-6.94-13.18,4.28-19.19s8.95-10,8.95-10Z"/><circle class="cls-10" cx="1629.32" cy="534.08" r="30.34" transform="translate(99.57 1308.53) rotate(-45)"/><path class="cls-14" d="M1540.17,416l8.26,85.58s68.75,27.73,85.79,30.13,26.39-8.76,26.39-8.76l82.79-85.78V415.94Z"/><path class="cls-15" d="M1740.27,406.32s-91.65,13.89-151.33,10.16c-21.32-1.34-38.57-4.92-46.09-12.2a53.29,53.29,0,0,1,6.15-8.11c3.58-3.84,8.3-7.51,13-7.08,9.63.89,12.53-11.42,23.11-8.82s19.59,9.86,28.6,7.78,16.45-25.94,31.33-23.35,24.29,24.39,36,22.32,16.45-10.38,25.07-8.31,11.36,12,15.67,13.77S1740.27,406.32,1740.27,406.32Z"/><path class="cls-10" d="M1622,405.07s-25.29,6.82-41.37,11.41c-21.32-1.34-38.56-4.92-46.09-12.2a53.77,53.77,0,0,1,6.16-8.11Z"/><rect class="cls-14" x="1531.88" y="404.92" width="214.65" height="14.49"/><path class="cls-8" d="M1332.5,314.37l261.13,118.37,45.86,19.44s27.63,6.05,24.69,27.41-4.69,33.57-4.69,33.57l-8.22-3.43s6.46-27.57,4.11-35.21-19.56-15.86-23.58-18.21-38.69,60.18-38.69,60.18l-7-3.33,34.07-59.2-32.31-13.76-4.7,80.28h-7.76l1.26-84.76L1332.5,321.45Z"/><circle class="cls-16" cx="1641.86" cy="536.82" r="30.34" transform="translate(101.3 1318.2) rotate(-45)"/><path class="cls-11" d="M1653.4,536.82a11.54,11.54,0,1,1-11.54-11.54A11.54,11.54,0,0,1,1653.4,536.82Z"/><path class="cls-6" d="M1332.51,304.59s25.6,27.73,34.25,34.83,18.77,11.11,22.48,11.6,7.07-3,7.07-3-5.4-1.16-6.49-2.09-1.24-3.66-3.69-6.1-5.54-8.78-5.54-8.78-4.82-7.12-8.5-7.57-6.56-3.05-11.12-8.76-14-21.91-14-21.91Z"/><path class="cls-17" d="M1354.83,301.58s-10.12,9.06-16.19,9.59c0,0-38.42-28.55-36.85-41.87s39.54-54.19,55.06-57.29,12.24,23.19,4.34,35.65-27.88,24-27.88,24Z"/><path class="cls-2" d="M1365.9,222.59s8.1,2.33-6.8,28"/><path class="cls-10" d="M1292.49,460.07l23.61,16.67s-31.83,26.05-42.16,34.64-25.88,19.79-27.75,22.89.21,25.12.21,25.12-12.17-9.42-15.07-14.34-9.63-18.91-9.63-18.91,21-15.22,26.39-21.48C1255,496.65,1292.49,460.07,1292.49,460.07Z"/><path class="cls-2" d="M1387.37,211.76s18,39.91,34.06,36.07,2.78-32,2.78-32"/><path class="cls-11" d="M1370.5,210.05s17.72,47.25,11,78.39c0,0,2.45,10.6,10.41,2.46,0,0,6.27-27.83-10.71-80.85C1381.21,210.05,1374.12,209.32,1370.5,210.05Z"/><path class="cls-11" d="M1430.42,216.75s10.95,51.87-5.88,81.85l8,2.55s15-40.33,8.82-78.12C1441.41,223,1435.76,215.6,1430.42,216.75Z"/><path class="cls-2" d="M1388.81,299.84l37.7,11.33s-2,23.13-26.64,14.46S1388.81,299.84,1388.81,299.84Z"/><line class="cls-18" x1="1576.53" y1="420.2" x2="1743.01" y2="420.2"/><circle class="cls-4" cx="842.46" cy="168.73" r="2.15"/><path class="cls-19" d="M434.57,548.29s-8.64-15.41-3.79-25c0,0,7.63,9.08,5.18,23.67,0,0-.62-28.19,13.3-41.16,0,0-4.5,32.34-10,41.18,0,0,5.79-7.24,11.82-8.46,0,0-6.21,7.42-9.33,9.77Z"/><path class="cls-19" d="M157.09,547.11s-6.13-10.93-2.69-17.74c0,0,5.42,6.46,3.67,16.81,0,0-.43-20,9.45-29.21,0,0-3.2,22.95-7.09,29.22,0,0,4.11-5.14,8.39-6,0,0-4.41,5.36-6.62,6.92Z"/><path class="cls-19" d="M35.91,589s-10-17.76-4.38-28.82c0,0,8.81,10.49,6,27.31,0,0-.71-32.51,15.34-47.47,0,0-5.2,37.3-11.51,47.49,0,0,6.68-8.36,13.63-9.76,0,0-7.17,8.71-10.76,11.25Z"/><path class="cls-19" d="M389.5,575.1s-8.76-9-7.2-16.46c0,0,6.9,4.82,7.9,15.27,0,0-5.6-19.22,1.56-30.67,0,0,2.85,23,.72,30.06,0,0,2.64-6,6.55-7.94,0,0-2.87,6.32-4.6,8.42Z"/><path class="cls-20" d="M790.87,225c-8,2.53-17.29,22.72-9.65,43.28s27,50.46,40.52,57.31,48.88,5.87,48.88,5.87,9.4-7.37,8.81-19.71c0,0-18.8-10.57-27-14.1s-15.28-19.42-15.28-19.42S814.52,217.54,790.87,225Z"/><path class="cls-21" d="M752.66,186.26s2,13,11.63,15,4.7-17.9,4.7-17.9Z"/><path class="cls-22" d="M708.77,322.56s-7.94,22.85,7.34,37.54,62.27,58.17,69.32,69.31-2.95,18.75-2.95,18.75h38.65S832,426.58,821,408s-63.82-88.73-63.82-88.73Z"/><path class="cls-14" d="M683.64,318.71s-15.14,21.42-4,46.68S719,432.9,714.92,448.21L712,455.73,750.06,460s6.94-19.39,0-38.19-16.22-96.27-16.22-96.27Z"/><path class="cls-10" d="M724.32,211.75c-14.66.31-20,21.47-23.5,44.37s-17.18,62.59-17.18,62.59,60.08,20.9,77.12,5.3c0,0,3-22.56,15.31-30.54s42.26-35.6,34.62-57.33S738.42,211.46,724.32,211.75Z"/><path class="cls-23" d="M897.51,272.35l-1.59,9.95L881.45,373c-47,8.23-106.15-13.32-106.15-13.32l.91-26.68.91-26.41,1.4-40.48.33-9.81Z"/><polygon class="cls-23" points="775.3 251.18 775.3 265.67 897.51 282.52 900.25 265.73 775.3 251.18"/><path class="cls-10" d="M864.55,318.13l-15.87,1.8L776.21,333l.91-26.41C797.28,307,848.62,309,864.55,318.13Z"/><path class="cls-24" d="M805.77,298.38s24.14,8.13,33,7.87,6.25-3.64,9.12-3.9A111.17,111.17,0,0,0,859.39,300c2.09-.52-.53,3.14-2.88,4.19a17.69,17.69,0,0,0-3.65,2.09s6,1.05,10.44,0a19,19,0,0,0,6.53-2.61,20.6,20.6,0,0,1-2.09,4.18l2.09-1.57s.52,3.39-4.44,5.22l-5,1.83a34.58,34.58,0,0,0,5.48,0,9.44,9.44,0,0,0,2.35-.35,16.44,16.44,0,0,1-3.92,2h3s-3.79,3.29-8.23,2.5-16-.26-21.31.14-37.18,2.21-43.45,0Z"/><path class="cls-25" d="M718.4,212.84c-8,2.52-17.28,22.72-9.64,43.28s27,50.46,40.52,57.3,48.87,5.88,48.87,5.88,9.4-7.37,8.82-19.71c0,0-18.8-10.58-27-14.1s-15.28-19.42-15.28-19.42S742.06,205.4,718.4,212.84Z"/><path class="cls-26" d="M712,455.73,750.06,460,722,562.8s3.69,1.81,9,8.23c4.49,5.37,12.1,10,12.1,10s-7.75,2.35-12.1,2.35-42.54-4.12-42.54-4.12Z"/><path class="cls-26" d="M783.66,442.81l38.08,4.25L783.47,549.88s3.69,1.8,9,8.22c4.49,5.38,12.1,10,12.1,10s-7.75,2.35-12.1,2.35S750,566.33,750,566.33Z"/><path class="cls-24" d="M767.65,170.59c-8.82,2.41-10.52,11.64-6.49,22.15l.89,2.69s-2.43-1.12-2.89,2.46S762.5,201,762.5,201l-5.45,14s9.93,17.74,15.3,13.27-3.14-8,2.68-16.56c0,0,8.06,2.24,10.52-1.34s2.68-21.7,0-30A14.45,14.45,0,0,0,767.65,170.59Z"/><path class="cls-10" d="M749.85,181.33s-3.46-14.09,10-20.58S781.07,171,781.07,171Z"/><path class="cls-9" d="M725.81,199.12c-.92,2.76,26.45-10.14,46.45-18.38s40.81-15.63,39.69-18.31-37.85,7.68-47,11.07C751.09,178.65,726.48,197.11,725.81,199.12Z"/><path class="cls-2" d="M696.15,322.54s-13.81,20.6-4.54,38.47,36.37,72.09,34.17,81.8-4.16,13.74-4.16,13.74"/><path class="cls-2" d="M703.2,322.54s-13.81,20.6-4.54,38.47,36.37,72.09,34.17,81.8-4.16,13.74-4.16,13.74"/><path class="cls-2" d="M709.86,322.54s-13.81,20.6-4.54,38.47,36.37,72.09,34.17,81.8-4.16,13.74-4.16,13.74"/><path class="cls-13" d="M711.89,238.59l3.81,3.9s5.54-10.65,20-8.58v-5.06S720.17,224.83,711.89,238.59Z"/><path class="cls-18" d="M752.66,213.26s-6.39,16.68.48,18.09,8.31,4.05,8.31,4.05,1.7,13.81,13.85,13.82l-5-19.09"/><path class="cls-18" d="M782.6,218.49s7.66,9.39,4.88,11.64-5.41,2.41-4.88,5.27.92,11.86-7.3,13.82"/><path class="cls-2" d="M781.69,192.41s4,5.29-.62,5.59"/><line class="cls-2" x1="778.46" y1="267.66" x2="897.51" y2="282.52"/><path class="cls-15" d="M802,192.93c.1,4.13-3.72,11.41.67,14.49,1.62,1.14,7,1.41,9,1.71a86,86,0,0,0,9,.69c13.78.68,27.89,2.55,41.67,4.47a171.64,171.64,0,0,1,16.91,3.44c2.62.63,5.73,1.67,8.62,1.39,4.18-.4,3.23-1.93,2.74-5.18-.91-6.12-.37-10.36-7.24-11.63-7.61-1.39-15-1.69-22.78-2.14-4.65-.27-9.11-1.56-13.75-2.09-6.19-.69-12.5-.44-18.68-1-8.47-.79-16.2-2.4-24.74-2.4Z"/><path class="cls-27" d="M806.18,190.18c-1.34.19-4.31,2-4.14,4.48.29,4.27,4.38,1.84,6.81,2.82,1.46.59,1.15,2.13,3.18,2.34,1.76.19,3.1-.6,4.48-.35,1.72.31,2.46,1.81,4.83,1.33,1.48-.3,3.19-1.46,4.46-2,.72.91,1.94,2.43,3.1,2.75,2.33.65,3.05-1.41,4.84-1.5,2.23-.12,1.75,1.5,3.62,2.1,2,.65,1.95-.84,3.7-.88,2.14,0,2,1.31,4.06,1.9,1.81.53,2.72-1,4.49-1,1.19,0,2.25,1.4,3.87,1.43,1.79,0,1.93-.92,3.79-.43,1,.26,1.46,1.61,2.65,1.81,1.45.25,3.6-.46,4.86-.36.26,0,1.08,1,1.7,1,.88.13,1.46-.79,2.34-.7,1.79.17,2.46,1.26,4.19,1.65s3-.92,4.51-.65c1.94.35,2,2,4.47,1.77.91-.07,2.51-1.07,3.45-1.33,1.53-.42,1.47,1.11,3-.76,1.71-2.05.47-5.56-.68-7.53-.33,0-.57.19-.9.25-1.57-2.53-2.76-5.53-6.18-4.12-1.87-4.76-4.74-.31-7.59-1.06-1.39-.36-2-3-3.88-3.06-1.43-.08-2.43,1.62-4.13,1.33-1.34-.22-2.24-1.76-3.79-2-1.72-.27-3.1.73-4.75.77-1.38,0-3.12-.78-4.84-.77s-3,.95-4.55.7c-1.32-.2-2.61-1.86-4.12-2.1s-2.94.47-4.48.36c-3.2-.21-4.78-2.24-7.92-1.64-1.84.35-3.44,1.57-5.18,1.39s-3-1.6-4.82-1.74-3.17,1.07-4.75,1-2.57-1.48-4.56-1.82c-2.87-.49-7.81,1.95-6.2,5.19"/><path class="cls-15" d="M793.71,214.75c.11,4.69-4.24,13,.76,16.47,1.84,1.29,8,1.6,10.21,1.94a98.09,98.09,0,0,0,10.2.78c15.67.78,31.7,2.91,47.37,5.09,6.56.91,12.83,2.36,19.22,3.9,3,.72,6.51,1.91,9.79,1.59,4.76-.46,3.68-2.19,3.13-5.9-1-7-.43-11.77-8.24-13.21-8.65-1.58-17-1.92-25.89-2.43-5.28-.31-10.36-1.78-15.63-2.37-7-.8-14.21-.51-21.24-1.17-9.62-.9-18.41-2.73-28.12-2.73Z"/><path class="cls-27" d="M798.41,211.62c-1.53.22-4.9,2.27-4.7,5.09.33,4.86,5,2.09,7.73,3.21,1.66.67,1.31,2.42,3.63,2.66,2,.22,3.52-.68,5.08-.4,2,.36,2.8,2.06,5.49,1.51,1.69-.34,3.63-1.65,5.07-2.25.82,1,2.2,2.76,3.53,3.13,2.64.74,3.46-1.61,5.5-1.71,2.53-.13,2,1.7,4.11,2.39,2.32.74,2.22-1,4.21-1,2.43-.06,2.3,1.49,4.61,2.16,2.06.6,3.1-1.18,5.1-1.13,1.36,0,2.56,1.6,4.41,1.63,2,0,2.18-1,4.31-.49,1.15.3,1.66,1.83,3,2.06,1.65.28,4.1-.53,5.53-.41.3,0,1.23,1.09,1.94,1.19,1,.15,1.65-.89,2.65-.8,2,.2,2.8,1.44,4.77,1.88s3.46-1.05,5.12-.74c2.21.4,2.29,2.23,5.08,2,1-.08,2.85-1.21,3.93-1.5,1.74-.48,1.66,1.25,3.43-.87,1.94-2.33.53-6.32-.78-8.56-.37.06-.64.22-1,.28-1.78-2.87-3.13-6.28-7-4.68-2.12-5.41-5.39-.35-8.62-1.2-1.58-.41-2.24-3.36-4.41-3.48-1.63-.09-2.76,1.84-4.69,1.52-1.53-.26-2.55-2-4.31-2.29-2-.3-3.53.84-5.41.88-1.57,0-3.54-.88-5.49-.88s-3.37,1.09-5.18.81c-1.49-.24-3-2.12-4.68-2.39s-3.34.53-5.09.41c-3.64-.25-5.43-2.55-9-1.87-2.1.39-3.91,1.79-5.89,1.58s-3.45-1.81-5.48-2-3.6,1.21-5.4,1.18-2.93-1.69-5.19-2.07c-3.26-.56-8.87,2.21-7,5.89"/><path class="cls-15" d="M789.79,238.25c.11,4.69-4.23,13,.76,16.47,1.84,1.29,8,1.6,10.21,1.94a101.14,101.14,0,0,0,10.2.79c15.67.77,31.71,2.9,47.37,5.08,6.56.91,12.84,2.37,19.22,3.91,3,.71,6.51,1.9,9.79,1.58,4.76-.46,3.68-2.19,3.13-5.89-1-6.95-.42-11.78-8.24-13.21-8.64-1.59-17-1.93-25.89-2.44-5.28-.31-10.36-1.78-15.63-2.37-7-.8-14.21-.51-21.24-1.17-9.62-.9-18.41-2.72-28.11-2.73Z"/><path class="cls-27" d="M794.49,235.12c-1.52.22-4.89,2.27-4.7,5.09.33,4.86,5,2.1,7.74,3.21,1.66.68,1.31,2.42,3.62,2.67,2,.21,3.52-.69,5.08-.4,2,.35,2.8,2.05,5.49,1.5,1.69-.34,3.63-1.65,5.08-2.25.82,1,2.2,2.76,3.52,3.13,2.65.74,3.46-1.6,5.51-1.71,2.52-.13,2,1.71,4.11,2.39,2.32.74,2.21-.95,4.2-1,2.43-.05,2.31,1.49,4.61,2.16,2.06.6,3.1-1.17,5.11-1.13,1.35,0,2.56,1.6,4.4,1.63,2,0,2.19-1,4.31-.49,1.15.3,1.66,1.83,3,2.06,1.64.28,4.09-.52,5.52-.41.3,0,1.23,1.09,1.94,1.19,1,.15,1.65-.89,2.65-.79,2,.19,2.81,1.43,4.77,1.87s3.46-1,5.12-.74c2.21.41,2.3,2.23,5.08,2,1-.08,2.85-1.22,3.93-1.51,1.74-.48,1.66,1.25,3.43-.86,1.94-2.34.53-6.33-.77-8.56-.38.06-.65.21-1,.27-1.79-2.86-3.14-6.28-7-4.68-2.13-5.41-5.39-.34-8.63-1.2-1.58-.41-2.24-3.36-4.41-3.48-1.63-.09-2.76,1.84-4.69,1.52-1.53-.26-2.55-2-4.31-2.28-2-.31-3.52.83-5.4.87-1.57,0-3.55-.88-5.5-.87s-3.37,1.08-5.18.8c-1.49-.23-3-2.12-4.68-2.39s-3.34.53-5.09.41c-3.64-.24-5.43-2.55-9-1.87-2.09.4-3.91,1.79-5.89,1.58-1.83-.19-3.45-1.81-5.48-2s-3.6,1.22-5.4,1.18-2.92-1.69-5.19-2.07c-3.25-.56-8.87,2.21-7,5.89"/><path class="cls-2" d="M905.73,170s-25.46,12.41-28,36.39"/><path class="cls-2" d="M881.84,160.7s-11,20.75-7.64,44.94"/><path class="cls-2" d="M793.7,204.76S813.6,228.91,809,256.3"/><path class="cls-2" d="M813.68,211.74A117.51,117.51,0,0,1,812,257.5"/><path class="cls-2" d="M826.81,179.69s-5.4,9.65-2.41,19.81"/><path class="cls-2" d="M816.43,174a64.07,64.07,0,0,1,5.68,25.53"/><circle class="cls-4" cx="883.21" cy="158.15" r="2.15"/><circle class="cls-4" cx="813.49" cy="171.08" r="2.15"/><circle class="cls-4" cx="828.76" cy="176.17" r="2.15"/><circle class="cls-4" cx="793.51" cy="204.76" r="2.15"/><circle class="cls-4" cx="813.49" cy="207.11" r="2.15"/><polygon class="cls-10" points="734.34 329.64 742.19 384.99 777.3 419.67 739.62 329.79 734.34 329.64"/><polygon class="cls-12" points="711.84 455.6 688.34 579.38 694.57 579.9 715.51 456.13 711.84 455.6"/><polygon class="cls-12" points="783.52 442.67 749.84 566.45 753.14 566.67 786.52 443.13 783.52 442.67"/><path class="cls-28" d="M100,293.09l-5.5-.54S57.67,268.4,50.53,267s-12-.64-15.53-3.74-3.8-8.81-3.8-8.81-3-8.6-1.86-10.37,1.51-.14,4.73,2.31a30.69,30.69,0,0,1,5.39,5.41s-1.42-3.73-.6-4.54-4-5.69-2.86-6.66,6,3.13,9,6.88,11.75,8.35,15.46,9.35,37.27,13.59,37.27,13.59Z"/><path class="cls-29" d="M129.72,295.16a51.93,51.93,0,0,1-19.62,2.45c-10-.55-22.33-3.77-35-12.78,0,0-.64-2.16-1.22-5.32-.9-5-1.67-12.44.47-17.78a11.28,11.28,0,0,1,1.94-3.27s19.84,8.42,22.25,10.06c0,0-.33-18.22-.7-28.9s1.23-34.3,18.47-34.42c12.37-.09,17,23.25,18.56,36.45.64,5.2.81,8.83.81,8.83C135.79,274.61,138.65,292,129.72,295.16Z"/><polygon class="cls-15" points="25.89 194.3 56.76 502.66 67.51 501.99 34.16 193.78 25.89 194.3"/><path class="cls-23" d="M53,502.89l16.42-3.1s1.63,26.07,24.15,20.92c0,0-1.66,46.63-25.76,59.76,0,0-29.09-13.55-35.53-50.12C32.31,530.35,55.23,524.77,53,502.89Z"/><polygon class="cls-7" points="56.34 502.69 64.22 545.7 69.45 499.79 56.34 502.69"/><path class="cls-14" d="M53,165.4c-1.86-9.85-54-7.22-52.93,7s24.35,10.14,26.15,26.41a15.69,15.69,0,0,0,8.37-1.56s-1.24-4.08,1.28-6.94S54.81,175.25,53,165.4ZM28.69,182.7c-3.47.84-5.55-2.56-9.78-3.75s-8.71-2.82-9.56-6.68c-1.44-6.55,35.3-10.09,36.05-4.74S32.17,181.86,28.69,182.7Z"/><path class="cls-28" d="M228.34,294S205.67,318.58,198,324.86s-16.63,9.85-19.92,10.29-6.26-2.71-6.26-2.71,4.78-1,5.75-1.85,1.1-3.24,3.27-5.4,4.9-7.78,4.9-7.78,4.28-6.31,7.54-6.71,5.81-2.7,9.85-7.76,12.41-19.41,12.41-19.41Z"/><path class="cls-26" d="M144.33,354.87c.53,1.52,4.19,23.68,3.9,43.21C148,415.34,155.39,470,155.39,470h23.24l.09-6.32c-2.87-32.17,5.06-92.2,7.71-106.22s-3.85-27.79-3.85-27.79l-57.69-3.41"/><path class="cls-10" d="M129.72,295.16a51.93,51.93,0,0,1-19.62,2.45c-4.79-23.28-4.69-66.66-4.69-66.66l-.82-15.44c12.15-7.57,17.27,5.51,17.54,5.85.12.16,6.15,9.56,12.74,20.29.64,5.2.81,8.83.81,8.83C135.79,274.61,138.65,292,129.72,295.16Z"/><path class="cls-30" d="M211.64,218c0-5.26-10.85-10-24-11.81s-41.26-2.46-52.52-4.21c-7.2-1.12-24.45,2.76-29.86,5.94s4.67,46.67,7.79,63.5,13.51,57.39,13.51,57.39,36.06,11.05,57.65-2c0,0,4.27-23.23,7.89-37.28S211.63,226,211.64,218Z"/><path class="cls-10" d="M153.07,465.25l29.76,2.48s-3.44,47.53-3.9,58.61-2.53,21.17,1.24,28.81,9.64,21.15,9.64,21.15-16.28,5.36-24.38.05c0,0-5.82-3.25-5.56-5.56s-.09-17.88-.09-17.88Z"/><path class="cls-16" d="M123.17,157.18s-4.58,11.57,5.48,15.75,19.79,2.93,21.82,5.37,2.6,10.94,2.6,10.94,3.13-8.31,6.23-15,2.39-21.73-11.93-21.07A97.92,97.92,0,0,0,123.17,157.18Z"/><path class="cls-28" d="M128.37,166.37s.24,22.34,4.81,24.65,9.94,3.14,10.5,6.44a48.64,48.64,0,0,1,.57,7.08l5.08,7.24,5.92-8.57.8-6.66s-2.85-4.78-3-7.31,5.64-5.61,3.85-8.78-3.52-2.19-3.52-2.19,1.24-18.56-15.14-17.5C138.26,160.77,128.17,161.08,128.37,166.37Z"/><path class="cls-16" d="M125.42,158.85s4.3,9.64,11.18,11,14.7,1.61,16.81,7.2l1.5-16.26a21.49,21.49,0,0,0-22-11.7C122.18,150.23,125.42,158.85,125.42,158.85Z"/><path class="cls-13" d="M156.05,196.55s3.88,1.07,3.64,6.43-4,13.69-4,13.69l-6.36-4.89S157.06,199.69,156.05,196.55Z"/><path class="cls-13" d="M144.16,201.1,149.47,212l-5.23,4.6S138.19,202.29,144.16,201.1Z"/><path class="cls-2" d="M134.12,177.67s-2.88,5.31,2.27,4"/><path class="cls-26" d="M124.89,326.21S71.7,384.78,68.8,393.9c0,0-.83,5.8,0,10s.83,20,.83,20l24.87,2.39s.59-9.12,2.16-13.26,40.78-51,59.32-51.82,3.61-16.56,3.61-16.56Z"/><path class="cls-10" d="M96.7,423.57l-27.61-4.05s4.92,39.4,6.44,52.28,4.92,31.07,4.16,34.48-16.86,17.43-16.86,17.43,14.78,1.51,20.08,0,19.33-6.82,19.33-6.82-4.55-24.6-4.17-32.58C98.55,474.09,96.7,423.57,96.7,423.57Z"/><path class="cls-30" d="M208.57,291.35s9,8,14.34,8.49c0,0,34-25.29,32.64-37.09s-35-48-48.77-50.75-10.85,20.54-3.84,31.57,24.69,21.26,24.69,21.26Z"/><path class="cls-2" d="M198.76,221.36s-7.18,2.07,6,24.82"/><path class="cls-10" d="M153.07,361.6l-4.61,44.25c-.21-15.16-.69-29.7-2.51-41.25A25.87,25.87,0,0,1,153.07,361.6Z"/><path class="cls-16" d="M204.27,248a27.56,27.56,0,0,1-8.68-14.25l-11.51,92.47Z"/><path class="cls-25" d="M839.53,302.84l-2.78-35.18,9.92-11.24Z"/><path class="cls-31" d="M1093.43,522a.62.62,0,0,0,.57-.35l3.74-7.46a.64.64,0,0,0-1.14-.58l-3.74,7.47a.65.65,0,0,0,.28.86A.72.72,0,0,0,1093.43,522Z"/><path class="cls-31" d="M1088.39,517.75a.64.64,0,0,0,.64-.64v-7.68a.64.64,0,0,0-1.28,0v7.68A.64.64,0,0,0,1088.39,517.75Z"/><path class="cls-31" d="M1081.14,518.18a.47.47,0,0,0,.17,0,.64.64,0,0,0,.44-.79l-2.13-7.46a.64.64,0,1,0-1.23.35l2.13,7.46A.65.65,0,0,0,1081.14,518.18Z"/><path class="cls-31" d="M1124.78,572.56a.63.63,0,0,0,.57-.36l3.74-7.46a.64.64,0,1,0-1.14-.57l-3.74,7.46a.64.64,0,0,0,.28.86A.73.73,0,0,0,1124.78,572.56Z"/><path class="cls-31" d="M1119.74,568.29a.64.64,0,0,0,.64-.64V560a.64.64,0,0,0-1.28,0v7.68A.64.64,0,0,0,1119.74,568.29Z"/><path class="cls-31" d="M1112.49,568.72a.51.51,0,0,0,.17,0,.63.63,0,0,0,.44-.79l-2.13-7.46a.65.65,0,0,0-.79-.44.64.64,0,0,0-.44.79l2.13,7.46A.65.65,0,0,0,1112.49,568.72Z"/><path class="cls-32" d="M128.1,40.7V58.23h-2.26V40.7Z"/><path class="cls-32" d="M146.46,57.76a8.49,8.49,0,0,1-3.62.73c-3.79,0-6.26-2.58-6.26-6.42a6.4,6.4,0,0,1,6.76-6.69,7.7,7.7,0,0,1,3.17.65L146,47.8a5.35,5.35,0,0,0-2.65-.6c-2.89,0-4.45,2.14-4.45,4.76,0,2.91,1.87,4.71,4.37,4.71a6.44,6.44,0,0,0,2.81-.63Z"/><path class="cls-32" d="M156.1,58.23l-.18-1.59h-.08A4.67,4.67,0,0,1,152,58.51a3.58,3.58,0,0,1-3.84-3.61c0-3,2.7-4.71,7.56-4.68V50a2.59,2.59,0,0,0-2.86-2.91,6.17,6.17,0,0,0-3.27.94l-.52-1.51a7.75,7.75,0,0,1,4.13-1.12C157,45.36,158,48,158,50.51v4.7a18.34,18.34,0,0,0,.21,3Zm-.34-6.42c-2.49-.06-5.33.39-5.33,2.83a2,2,0,0,0,2.16,2.19,3.13,3.13,0,0,0,3-2.11,2.29,2.29,0,0,0,.13-.73Z"/><path class="cls-32" d="M161.67,49.05c0-1.3,0-2.37-.11-3.41h2l.13,2.08h.05a4.63,4.63,0,0,1,4.16-2.36c1.74,0,4.45,1,4.45,5.35v7.52h-2.29V51c0-2-.75-3.71-2.91-3.71a3.24,3.24,0,0,0-3.07,2.34,3.33,3.33,0,0,0-.16,1.06v7.57h-2.28Z"/><path class="cls-32" d="M178.12,40.42a29.61,29.61,0,0,1-2.44,6.16l-1.46.18a36.36,36.36,0,0,0,1.54-6.11Z"/><path class="cls-32" d="M183.09,42v3.61h3.28v1.75h-3.28v6.78c0,1.56.44,2.45,1.71,2.45a5,5,0,0,0,1.33-.16l.11,1.72a5.71,5.71,0,0,1-2,.31,3.17,3.17,0,0,1-2.47-1,4.68,4.68,0,0,1-.89-3.28V47.39H178.9V45.64h1.95v-3Z"/><path class="cls-32" d="M205.29,45.64c0,.91-.1,1.93-.1,3.46v7.31c0,2.88-.57,4.65-1.79,5.75a6.7,6.7,0,0,1-4.58,1.5,8.11,8.11,0,0,1-4.19-1l.58-1.74a7.08,7.08,0,0,0,3.69,1c2.34,0,4-1.22,4-4.39V56.07h0a4.49,4.49,0,0,1-4,2.11c-3.12,0-5.36-2.66-5.36-6.14,0-4.26,2.78-6.68,5.67-6.68a4.17,4.17,0,0,1,3.92,2.18h.06l.1-1.9Zm-2.36,5a3.37,3.37,0,0,0-.13-1,3.3,3.3,0,0,0-3.2-2.42c-2.18,0-3.75,1.85-3.75,4.76,0,2.47,1.25,4.52,3.72,4.52a3.35,3.35,0,0,0,3.18-2.34,4,4,0,0,0,.18-1.22Z"/><path class="cls-32" d="M210.26,52.35c.05,3.1,2,4.37,4.31,4.37a8.37,8.37,0,0,0,3.49-.65l.39,1.64a10.31,10.31,0,0,1-4.19.78c-3.87,0-6.19-2.55-6.19-6.34s2.24-6.79,5.91-6.79c4.1,0,5.2,3.61,5.2,5.93a9.86,9.86,0,0,1-.08,1.06ZM217,50.71c0-1.45-.6-3.71-3.18-3.71-2.31,0-3.32,2.13-3.51,3.71Z"/><path class="cls-32" d="M224.77,42v3.61H228v1.75h-3.27v6.78c0,1.56.44,2.45,1.71,2.45a5,5,0,0,0,1.33-.16l.1,1.72a5.63,5.63,0,0,1-2,.31,3.2,3.2,0,0,1-2.47-1,4.68,4.68,0,0,1-.88-3.28V47.39h-1.95V45.64h1.95v-3Z"/><path class="cls-32" d="M238.88,42v3.61h3.28v1.75h-3.28v6.78c0,1.56.45,2.45,1.72,2.45a5,5,0,0,0,1.33-.16l.1,1.72a5.63,5.63,0,0,1-2,.31,3.2,3.2,0,0,1-2.47-1,4.68,4.68,0,0,1-.88-3.28V47.39h-2V45.64h2v-3Z"/><path class="cls-32" d="M244.73,39.77H247v7.85h0A4.3,4.3,0,0,1,248.71,46a4.71,4.71,0,0,1,2.34-.65c1.69,0,4.4,1,4.4,5.38v7.49h-2.29V51c0-2-.76-3.74-2.91-3.74a3.28,3.28,0,0,0-3.07,2.28,2.81,2.81,0,0,0-.16,1.1v7.59h-2.29Z"/><path class="cls-32" d="M260.44,52.35c.05,3.1,2,4.37,4.31,4.37a8.37,8.37,0,0,0,3.49-.65l.39,1.64a10.31,10.31,0,0,1-4.19.78c-3.87,0-6.19-2.55-6.19-6.34s2.24-6.79,5.91-6.79c4.1,0,5.2,3.61,5.2,5.93a9.86,9.86,0,0,1-.08,1.06Zm6.71-1.64c0-1.45-.6-3.71-3.18-3.71-2.31,0-3.32,2.13-3.51,3.71Z"/><path class="cls-32" d="M277.7,49.57c0-1.48,0-2.76-.1-3.93h2l.08,2.47h.1a3.77,3.77,0,0,1,3.48-2.75,2.21,2.21,0,0,1,.66.08v2.15a3.68,3.68,0,0,0-.79-.07,3.2,3.2,0,0,0-3.06,2.93,5.77,5.77,0,0,0-.11,1.07v6.71H277.7Z"/><path class="cls-32" d="M288.85,42.11a1.34,1.34,0,0,1-1.45,1.4,1.36,1.36,0,0,1-1.38-1.4,1.39,1.39,0,0,1,1.43-1.43A1.35,1.35,0,0,1,288.85,42.11Zm-2.54,16.12V45.64h2.28V58.23Z"/><path class="cls-32" d="M303.23,45.64c-.05.91-.1,1.93-.1,3.46v7.31c0,2.88-.57,4.65-1.79,5.75a6.72,6.72,0,0,1-4.58,1.5,8.11,8.11,0,0,1-4.19-1l.57-1.74a7.15,7.15,0,0,0,3.7,1c2.34,0,4.05-1.22,4.05-4.39V56.07h-.05a4.49,4.49,0,0,1-4,2.11c-3.12,0-5.36-2.66-5.36-6.14,0-4.26,2.78-6.68,5.67-6.68a4.17,4.17,0,0,1,3.92,2.18h.06l.1-1.9Zm-2.36,5a3.37,3.37,0,0,0-.13-1,3.3,3.3,0,0,0-3.2-2.42c-2.19,0-3.75,1.85-3.75,4.76,0,2.47,1.25,4.52,3.72,4.52a3.33,3.33,0,0,0,3.17-2.34,4,4,0,0,0,.19-1.22Z"/><path class="cls-32" d="M306.93,39.77h2.28v7.85h.05A4.3,4.3,0,0,1,310.9,46a4.71,4.71,0,0,1,2.34-.65c1.69,0,4.4,1,4.4,5.38v7.49h-2.29V51c0-2-.76-3.74-2.91-3.74a3.28,3.28,0,0,0-3.07,2.28,2.81,2.81,0,0,0-.16,1.1v7.59h-2.28Z"/><path class="cls-32" d="M324,42v3.61h3.27v1.75H324v6.78c0,1.56.44,2.45,1.71,2.45a5,5,0,0,0,1.33-.16l.1,1.72a5.61,5.61,0,0,1-2,.31,3.21,3.21,0,0,1-2.48-1,4.73,4.73,0,0,1-.88-3.28V47.39h-1.95V45.64h1.95v-3Z"/><path class="cls-32" d="M163.33,81c0-1.61-.05-2.91-.11-4.11h2.06l.1,2.16h.05a5,5,0,0,1,4.48-2.44c3,0,5.33,2.57,5.33,6.39,0,4.53-2.76,6.77-5.72,6.77a4.42,4.42,0,0,1-3.88-2h0v6.84h-2.26Zm2.26,3.36a5.2,5.2,0,0,0,.1.93,3.54,3.54,0,0,0,3.44,2.68c2.41,0,3.82-2,3.82-4.86,0-2.52-1.33-4.68-3.75-4.68a3.64,3.64,0,0,0-3.45,2.83,3.7,3.7,0,0,0-.16.94Z"/><path class="cls-32" d="M178.12,80.77c0-1.48,0-2.76-.1-3.93h2l.08,2.48h.1a3.77,3.77,0,0,1,3.49-2.76,2.18,2.18,0,0,1,.65.08v2.15a3.64,3.64,0,0,0-.78-.07,3.2,3.2,0,0,0-3.07,2.94,6.52,6.52,0,0,0-.11,1.06v6.71h-2.26Z"/><path class="cls-32" d="M189.28,73.31a1.42,1.42,0,0,1-2.84,0,1.39,1.39,0,0,1,1.43-1.43A1.36,1.36,0,0,1,189.28,73.31Zm-2.55,16.12V76.84H189V89.43Z"/><path class="cls-32" d="M201.78,89a8.44,8.44,0,0,1-3.61.73c-3.8,0-6.27-2.57-6.27-6.42a6.4,6.4,0,0,1,6.76-6.69,7.48,7.48,0,0,1,3.17.66L201.31,79a5.31,5.31,0,0,0-2.65-.59c-2.88,0-4.44,2.13-4.44,4.75,0,2.92,1.87,4.71,4.36,4.71a6.44,6.44,0,0,0,2.81-.63Z"/><path class="cls-32" d="M205.58,83.55c0,3.1,2,4.37,4.31,4.37a8.21,8.21,0,0,0,3.49-.65l.39,1.64a10.31,10.31,0,0,1-4.19.78c-3.87,0-6.19-2.55-6.19-6.35s2.24-6.78,5.91-6.78c4.1,0,5.2,3.61,5.2,5.93a9.86,9.86,0,0,1-.08,1.06Zm6.71-1.64c0-1.45-.6-3.71-3.18-3.71-2.31,0-3.32,2.13-3.51,3.71Z"/><path class="cls-32" d="M223.07,89.43V78.59h-1.76V76.84h1.76v-.59a6,6,0,0,1,1.46-4.4,4.39,4.39,0,0,1,3.07-1.17,5.15,5.15,0,0,1,2,.37l-.31,1.76a3.55,3.55,0,0,0-1.46-.28c-1.95,0-2.44,1.71-2.44,3.64v.67h3v1.75h-3V89.43Z"/><path class="cls-32" d="M241.48,83c0,4.66-3.22,6.69-6.26,6.69-3.41,0-6-2.5-6-6.48,0-4.21,2.76-6.68,6.25-6.68S241.48,79.18,241.48,83Zm-10,.13c0,2.76,1.59,4.84,3.82,4.84s3.82-2.06,3.82-4.89c0-2.13-1.06-4.84-3.77-4.84S231.5,80.77,231.5,83.16Z"/><path class="cls-32" d="M244.37,80.77c0-1.48,0-2.76-.11-3.93h2l.07,2.48h.11a3.76,3.76,0,0,1,3.48-2.76,2.14,2.14,0,0,1,.65.08v2.15a3.52,3.52,0,0,0-.78-.07,3.2,3.2,0,0,0-3.06,2.94,5.57,5.57,0,0,0-.11,1.06v6.71h-2.26Z"/><path class="cls-32" d="M261.14,73.23v3.61h3.28v1.75h-3.28v6.78c0,1.56.44,2.45,1.71,2.45a5,5,0,0,0,1.33-.16l.1,1.72a5.61,5.61,0,0,1-2,.31,3.17,3.17,0,0,1-2.47-1,4.68,4.68,0,0,1-.89-3.28V78.59H257V76.84h1.95v-3Z"/><path class="cls-32" d="M267,71h2.29v7.85h.05A4.17,4.17,0,0,1,271,77.21a4.69,4.69,0,0,1,2.34-.65c1.69,0,4.39,1,4.39,5.38v7.49h-2.29V82.2c0-2-.75-3.74-2.91-3.74a3.3,3.3,0,0,0-3.07,2.28,2.85,2.85,0,0,0-.15,1.1v7.59H267Z"/><path class="cls-32" d="M284,73.31a1.42,1.42,0,0,1-2.84,0,1.39,1.39,0,0,1,1.43-1.43A1.36,1.36,0,0,1,284,73.31Zm-2.55,16.12V76.84h2.29V89.43Z"/><path class="cls-32" d="M287.19,87.09a6,6,0,0,0,3,.91c1.66,0,2.44-.83,2.44-1.87s-.65-1.69-2.34-2.32c-2.26-.8-3.33-2-3.33-3.56,0-2,1.64-3.69,4.34-3.69a6.24,6.24,0,0,1,3.1.78L293.85,79a5,5,0,0,0-2.58-.73c-1.35,0-2.1.78-2.1,1.72s.75,1.51,2.39,2.13c2.18.83,3.3,1.93,3.3,3.8,0,2.21-1.72,3.77-4.71,3.77a7.16,7.16,0,0,1-3.53-.86Z"/><path class="cls-32" d="M1159.65,33.79v7.33h8.48V33.79h2.29V51.32h-2.29V43.1h-8.48v8.22h-2.26V33.79Z"/><path class="cls-32" d="M1181.23,51.32l-.18-1.59H1181a4.67,4.67,0,0,1-3.85,1.87,3.58,3.58,0,0,1-3.84-3.61c0-3.05,2.7-4.71,7.56-4.68v-.26a2.6,2.6,0,0,0-2.86-2.92,6.26,6.26,0,0,0-3.27.94l-.52-1.51a7.84,7.84,0,0,1,4.13-1.12c3.85,0,4.78,2.63,4.78,5.15V48.3a18.42,18.42,0,0,0,.21,3Zm-.34-6.43c-2.49,0-5.33.39-5.33,2.84a2,2,0,0,0,2.16,2.18,3.12,3.12,0,0,0,3-2.11,2.28,2.28,0,0,0,.13-.72Z"/><path class="cls-32" d="M1186.8,42.66c0-1.49,0-2.76-.11-3.93h2l.08,2.47h.11a3.78,3.78,0,0,1,3.48-2.76,2.57,2.57,0,0,1,.65.08v2.16a3.6,3.6,0,0,0-.78-.08,3.22,3.22,0,0,0-3.07,2.94,6.72,6.72,0,0,0-.1,1.07v6.71h-2.26Z"/><path class="cls-32" d="M1196.83,38.73l2.47,7.07c.42,1.15.75,2.19,1,3.23h.07c.29-1,.65-2.08,1.07-3.23l2.44-7.07h2.4l-4.94,12.59h-2.19l-4.78-12.59Z"/><path class="cls-32" d="M1209.47,45.44c0,3.09,2,4.37,4.31,4.37a8.37,8.37,0,0,0,3.49-.65l.39,1.63a10.1,10.1,0,0,1-4.19.79c-3.87,0-6.19-2.55-6.19-6.35s2.24-6.79,5.9-6.79c4.11,0,5.2,3.62,5.2,5.93a10.69,10.69,0,0,1-.07,1.07Zm6.71-1.64c0-1.46-.6-3.72-3.18-3.72-2.31,0-3.33,2.13-3.51,3.72Z"/><path class="cls-32" d="M1220.91,49a6,6,0,0,0,3,.9c1.67,0,2.45-.83,2.45-1.87s-.65-1.69-2.34-2.31c-2.27-.81-3.33-2.06-3.33-3.56,0-2,1.64-3.7,4.34-3.7a6.34,6.34,0,0,1,3.09.78l-.57,1.67a4.89,4.89,0,0,0-2.57-.73c-1.35,0-2.11.78-2.11,1.72s.76,1.5,2.39,2.13c2.19.83,3.31,1.92,3.31,3.79,0,2.21-1.72,3.78-4.71,3.78a7.2,7.2,0,0,1-3.54-.86Z"/><path class="cls-32" d="M1234.27,35.12v3.61h3.28v1.74h-3.28v6.79c0,1.56.44,2.44,1.72,2.44a5.42,5.42,0,0,0,1.32-.15l.11,1.71a5.68,5.68,0,0,1-2,.32,3.14,3.14,0,0,1-2.47-1,4.64,4.64,0,0,1-.89-3.27V40.47h-2V38.73h2v-3Z"/><path class="cls-32" d="M1248.18,35.19a1.42,1.42,0,0,1-2.83,0,1.39,1.39,0,0,1,1.43-1.43A1.36,1.36,0,0,1,1248.18,35.19Zm-2.55,16.13V38.73h2.29V51.32Z"/><path class="cls-32" d="M1251.4,49a6.06,6.06,0,0,0,3,.9c1.66,0,2.44-.83,2.44-1.87s-.65-1.69-2.34-2.31c-2.26-.81-3.32-2.06-3.32-3.56,0-2,1.63-3.7,4.34-3.7a6.34,6.34,0,0,1,3.09.78l-.57,1.67a4.89,4.89,0,0,0-2.57-.73c-1.36,0-2.11.78-2.11,1.72s.75,1.5,2.39,2.13c2.19.83,3.3,1.92,3.3,3.79,0,2.21-1.71,3.78-4.7,3.78a7.2,7.2,0,0,1-3.54-.86Z"/><path class="cls-32" d="M1267.76,51.32V40.47H1266V38.73h1.77v-.6a5.94,5.94,0,0,1,1.45-4.39,4.41,4.41,0,0,1,3.07-1.17,5.33,5.33,0,0,1,2,.36l-.31,1.77a3.38,3.38,0,0,0-1.46-.29c-2,0-2.44,1.72-2.44,3.64v.68h3v1.74h-3V51.32Z"/><path class="cls-32" d="M1282.08,51.32l-.18-1.59h-.08A4.67,4.67,0,0,1,1278,51.6a3.58,3.58,0,0,1-3.84-3.61c0-3.05,2.7-4.71,7.56-4.68v-.26a2.6,2.6,0,0,0-2.86-2.92,6.26,6.26,0,0,0-3.27.94l-.52-1.51a7.87,7.87,0,0,1,4.13-1.12c3.85,0,4.79,2.63,4.79,5.15V48.3a18.5,18.5,0,0,0,.2,3Zm-.33-6.43c-2.5,0-5.33.39-5.33,2.84a2,2,0,0,0,2.15,2.18,3.14,3.14,0,0,0,3-2.11,2.6,2.6,0,0,0,.13-.72Z"/><path class="cls-32" d="M1296.62,50.85a8.49,8.49,0,0,1-3.62.73c-3.79,0-6.26-2.58-6.26-6.43a6.39,6.39,0,0,1,6.76-6.68,7.66,7.66,0,0,1,3.17.65l-.52,1.77a5.32,5.32,0,0,0-2.65-.6c-2.89,0-4.45,2.13-4.45,4.76,0,2.91,1.87,4.7,4.37,4.7a6.46,6.46,0,0,0,2.81-.62Z"/><path class="cls-32" d="M1301.84,35.19a1.35,1.35,0,0,1-1.45,1.41,1.36,1.36,0,0,1-1.38-1.41,1.4,1.4,0,0,1,1.43-1.43A1.36,1.36,0,0,1,1301.84,35.19Zm-2.54,16.13V38.73h2.28V51.32Z"/><path class="cls-32" d="M1305.38,42.14c0-1.3,0-2.37-.11-3.41h2l.13,2.08h0a4.63,4.63,0,0,1,4.16-2.37c1.75,0,4.45,1,4.45,5.36v7.52h-2.29V44.06c0-2-.75-3.72-2.91-3.72a3.26,3.26,0,0,0-3.07,2.34,3.46,3.46,0,0,0-.15,1.07v7.57h-2.29Z"/><path class="cls-32" d="M1330.65,38.73c-.05.91-.1,1.93-.1,3.46v7.3c0,2.89-.58,4.66-1.8,5.75a6.63,6.63,0,0,1-4.57,1.51,8.08,8.08,0,0,1-4.19-1l.57-1.74a7.1,7.1,0,0,0,3.7,1c2.33,0,4-1.22,4-4.39v-1.4h0a4.49,4.49,0,0,1-4,2.1c-3.13,0-5.36-2.65-5.36-6.13,0-4.27,2.78-6.69,5.67-6.69a4.18,4.18,0,0,1,3.92,2.19h.06l.1-1.9Zm-2.37,5a3.09,3.09,0,0,0-.13-1,3.28,3.28,0,0,0-3.19-2.42c-2.19,0-3.75,1.84-3.75,4.76,0,2.47,1.25,4.52,3.72,4.52a3.33,3.33,0,0,0,3.17-2.34,4,4,0,0,0,.18-1.22Z"/><path class="cls-32" d="M1339.85,32.85h2.29V51.32h-2.29Z"/><path class="cls-32" d="M1357.38,44.92c0,4.65-3.23,6.68-6.27,6.68-3.4,0-6-2.5-6-6.47,0-4.22,2.76-6.69,6.24-6.69S1357.38,41.07,1357.38,44.92Zm-10,.13c0,2.75,1.59,4.83,3.83,4.83S1355,47.83,1355,45c0-2.14-1.07-4.84-3.77-4.84S1347.39,42.66,1347.39,45.05Z"/><path class="cls-32" d="M1360,49a6,6,0,0,0,3,.9c1.66,0,2.44-.83,2.44-1.87s-.65-1.69-2.34-2.31c-2.26-.81-3.33-2.06-3.33-3.56,0-2,1.64-3.7,4.35-3.7a6.34,6.34,0,0,1,3.09.78l-.57,1.67a5,5,0,0,0-2.58-.73c-1.35,0-2.1.78-2.1,1.72s.75,1.5,2.39,2.13c2.18.83,3.3,1.92,3.3,3.79,0,2.21-1.71,3.78-4.7,3.78a7.18,7.18,0,0,1-3.54-.86Z"/><path class="cls-32" d="M1370.25,49a6,6,0,0,0,3,.9c1.67,0,2.45-.83,2.45-1.87s-.65-1.69-2.34-2.31c-2.26-.81-3.33-2.06-3.33-3.56,0-2,1.64-3.7,4.34-3.7a6.38,6.38,0,0,1,3.1.78l-.58,1.67a4.89,4.89,0,0,0-2.57-.73c-1.35,0-2.11.78-2.11,1.72s.76,1.5,2.4,2.13c2.18.83,3.3,1.92,3.3,3.79,0,2.21-1.72,3.78-4.71,3.78a7.14,7.14,0,0,1-3.53-.86Z"/><path class="cls-32" d="M1382.13,45.44c0,3.09,2,4.37,4.32,4.37a8.35,8.35,0,0,0,3.48-.65l.39,1.63a10.07,10.07,0,0,1-4.19.79c-3.87,0-6.18-2.55-6.18-6.35s2.23-6.79,5.9-6.79c4.11,0,5.2,3.62,5.2,5.93a8,8,0,0,1-.08,1.07Zm6.71-1.64c0-1.46-.6-3.72-3.17-3.72-2.32,0-3.33,2.13-3.51,3.72Z"/><path class="cls-32" d="M1393.57,49a6,6,0,0,0,3,.9c1.66,0,2.44-.83,2.44-1.87s-.65-1.69-2.34-2.31c-2.26-.81-3.33-2.06-3.33-3.56,0-2,1.64-3.7,4.34-3.7a6.35,6.35,0,0,1,3.1.78l-.57,1.67a5,5,0,0,0-2.58-.73c-1.35,0-2.1.78-2.1,1.72s.75,1.5,2.39,2.13c2.18.83,3.3,1.92,3.3,3.79,0,2.21-1.72,3.78-4.71,3.78a7.16,7.16,0,0,1-3.53-.86Z"/><path class="cls-32" d="M1402.41,54.51A37.81,37.81,0,0,0,1404,48.3l2.55-.26a31.67,31.67,0,0,1-2.47,6.32Z"/><path class="cls-32" d="M1150.19,69.93l1.66,6.4c.37,1.4.7,2.7.94,4h.08c.28-1.27.7-2.63,1.11-4l2.06-6.42H1158l2,6.29c.47,1.51.83,2.84,1.12,4.11h.08a37.41,37.41,0,0,1,1-4.08l1.79-6.32h2.27l-4.06,12.58H1160l-1.92-6a39.32,39.32,0,0,1-1.12-4.14h0a39.24,39.24,0,0,1-1.15,4.16l-2,6h-2.08l-3.79-12.58Z"/><path class="cls-32" d="M1168.41,64.05h2.29v7.86h0a4.33,4.33,0,0,1,1.64-1.62,4.82,4.82,0,0,1,2.34-.65c1.69,0,4.4,1,4.4,5.39v7.48h-2.29V75.29c0-2-.76-3.75-2.91-3.75a3.28,3.28,0,0,0-3.07,2.29,2.76,2.76,0,0,0-.16,1.09v7.59h-2.29Z"/><path class="cls-32" d="M1183.34,69.93l2.75,7.44c.29.83.6,1.82.81,2.57h0c.23-.75.49-1.71.81-2.62l2.49-7.39h2.42l-3.43,9c-1.64,4.32-2.76,6.53-4.32,7.88a6.11,6.11,0,0,1-2.81,1.48l-.57-1.92a6.15,6.15,0,0,0,2-1.12,7,7,0,0,0,1.92-2.55,1.71,1.71,0,0,0,.18-.55,2,2,0,0,0-.15-.59l-4.66-11.6Z"/><path class="cls-32" d="M1207.23,82.51l-.18-1.58H1207a4.67,4.67,0,0,1-3.85,1.87,3.58,3.58,0,0,1-3.85-3.61c0-3,2.71-4.71,7.57-4.68v-.26a2.6,2.6,0,0,0-2.86-2.92,6.32,6.32,0,0,0-3.28.94l-.52-1.51a7.88,7.88,0,0,1,4.14-1.12c3.85,0,4.78,2.63,4.78,5.15V79.5a17.19,17.19,0,0,0,.21,3Zm-.34-6.42c-2.49,0-5.33.39-5.33,2.84a2,2,0,0,0,2.16,2.18,3.12,3.12,0,0,0,3-2.11,2.28,2.28,0,0,0,.13-.72Z"/><path class="cls-32" d="M1212.8,73.34c0-1.3,0-2.37-.11-3.41h2l.11,2h.08a4.33,4.33,0,0,1,3.95-2.32,3.72,3.72,0,0,1,3.56,2.53h0a5.22,5.22,0,0,1,1.4-1.64,4.34,4.34,0,0,1,2.79-.89c1.66,0,4.13,1.1,4.13,5.46v7.41h-2.23V75.39c0-2.42-.89-3.87-2.73-3.87a3,3,0,0,0-2.71,2.08,3.89,3.89,0,0,0-.18,1.14v7.77h-2.24V75c0-2-.88-3.46-2.62-3.46a3.14,3.14,0,0,0-2.84,2.28,3.17,3.17,0,0,0-.18,1.12v7.59h-2.23Z"/><path class="cls-32" d="M1242.33,65V82.51h-2.26V65Z"/><path class="cls-32" d="M1258.68,82.51l-.18-1.58h-.08a4.67,4.67,0,0,1-3.84,1.87,3.58,3.58,0,0,1-3.85-3.61c0-3,2.7-4.71,7.56-4.68v-.26a2.6,2.6,0,0,0-2.86-2.92,6.26,6.26,0,0,0-3.27.94l-.52-1.51a7.87,7.87,0,0,1,4.13-1.12c3.85,0,4.79,2.63,4.79,5.15V79.5a18.29,18.29,0,0,0,.2,3Zm-.33-6.42c-2.5,0-5.33.39-5.33,2.84a2,2,0,0,0,2.15,2.18,3.14,3.14,0,0,0,3-2.11,2.6,2.6,0,0,0,.13-.72Z"/><path class="cls-32" d="M1264.25,64.05h2.29V82.51h-2.29Z"/><path class="cls-32" d="M1271.29,69.93l1.67,6.4c.36,1.4.7,2.7.93,4h.08c.29-1.27.7-2.63,1.12-4l2.05-6.42h1.93l2,6.29c.47,1.51.83,2.84,1.12,4.11h.07a37.6,37.6,0,0,1,1-4.08l1.79-6.32h2.26l-4,12.58h-2.08l-1.93-6c-.44-1.41-.8-2.65-1.12-4.14h0a37,37,0,0,1-1.14,4.16l-2,6h-2.08L1269,69.93Z"/><path class="cls-32" d="M1296.38,82.51l-.18-1.58h-.08a4.67,4.67,0,0,1-3.84,1.87,3.58,3.58,0,0,1-3.85-3.61c0-3,2.7-4.71,7.56-4.68v-.26a2.6,2.6,0,0,0-2.86-2.92,6.26,6.26,0,0,0-3.27.94l-.52-1.51a7.87,7.87,0,0,1,4.13-1.12c3.85,0,4.79,2.63,4.79,5.15V79.5a18.29,18.29,0,0,0,.2,3Zm-.33-6.42c-2.5,0-5.33.39-5.33,2.84a2,2,0,0,0,2.15,2.18,3.14,3.14,0,0,0,3.05-2.11,2.6,2.6,0,0,0,.13-.72Z"/><path class="cls-32" d="M1302.57,69.93l2.76,7.44c.28.83.6,1.82.8,2.57h0c.24-.75.5-1.71.81-2.62l2.5-7.39h2.42l-3.44,9c-1.63,4.32-2.75,6.53-4.31,7.88a6.15,6.15,0,0,1-2.81,1.48l-.57-1.92a6.11,6.11,0,0,0,2-1.12,7,7,0,0,0,1.92-2.55,1.49,1.49,0,0,0,.18-.55,2,2,0,0,0-.15-.59l-4.65-11.6Z"/><path class="cls-32" d="M1313.52,80.17a5.89,5.89,0,0,0,3,.91c1.67,0,2.45-.83,2.45-1.87s-.65-1.69-2.34-2.31c-2.26-.81-3.33-2.06-3.33-3.56,0-2,1.64-3.7,4.34-3.7a6.38,6.38,0,0,1,3.1.78l-.58,1.67a4.89,4.89,0,0,0-2.57-.73c-1.35,0-2.11.78-2.11,1.72s.76,1.5,2.4,2.13c2.18.83,3.3,1.92,3.3,3.79,0,2.22-1.72,3.77-4.71,3.77a7.14,7.14,0,0,1-3.53-.85Z"/><path class="cls-32" d="M1332.19,66.39a1.42,1.42,0,0,1-2.84,0,1.4,1.4,0,0,1,1.43-1.43A1.37,1.37,0,0,1,1332.19,66.39Zm-2.55,16.12V69.93h2.29V82.51Z"/><path class="cls-32" d="M1335.72,73.34c0-1.3,0-2.37-.1-3.41h2l.13,2.08h.06a4.64,4.64,0,0,1,4.16-2.37c1.74,0,4.44,1,4.44,5.36v7.51h-2.29V75.26c0-2-.75-3.72-2.91-3.72a3.26,3.26,0,0,0-3.07,2.34A3.46,3.46,0,0,0,1338,75v7.56h-2.29Z"/><path class="cls-32" d="M1366.53,64.05V79.26c0,1.12,0,2.4.1,3.25h-2.05l-.1-2.18h0a4.66,4.66,0,0,1-4.3,2.47c-3,0-5.38-2.57-5.38-6.39,0-4.19,2.58-6.77,5.64-6.77a4.2,4.2,0,0,1,3.8,1.93h0V64.05Zm-2.29,11a4,4,0,0,0-.1-1,3.36,3.36,0,0,0-3.3-2.65c-2.37,0-3.77,2.08-3.77,4.86,0,2.55,1.24,4.65,3.72,4.65a3.44,3.44,0,0,0,3.35-2.72,4,4,0,0,0,.1-1Z"/><path class="cls-32" d="M1371.6,76.64c.05,3.09,2,4.37,4.32,4.37a8.35,8.35,0,0,0,3.48-.65l.39,1.63a10.1,10.1,0,0,1-4.19.78c-3.87,0-6.18-2.54-6.18-6.34s2.23-6.79,5.9-6.79c4.11,0,5.2,3.62,5.2,5.93a7.82,7.82,0,0,1-.08,1.07Zm6.71-1.64c0-1.46-.6-3.72-3.17-3.72-2.32,0-3.33,2.13-3.51,3.72Z"/><path class="cls-32" d="M1383.25,82.51c0-.85.1-2.13.1-3.25V64.05h2.26V72h.06a4.67,4.67,0,0,1,4.29-2.32c3.12,0,5.33,2.6,5.3,6.43,0,4.5-2.83,6.73-5.64,6.73a4.47,4.47,0,0,1-4.21-2.37h-.08l-.11,2.08Zm2.36-5a4.38,4.38,0,0,0,.11.83,3.53,3.53,0,0,0,3.43,2.68c2.39,0,3.82-2,3.82-4.83,0-2.53-1.3-4.69-3.74-4.69a3.66,3.66,0,0,0-3.49,2.81,4.63,4.63,0,0,0-.13.94Z"/><path class="cls-32" d="M1400.9,66.32v3.61h3.28v1.74h-3.28v6.79c0,1.56.44,2.44,1.72,2.44a5,5,0,0,0,1.32-.15l.11,1.71a5.46,5.46,0,0,1-2,.31,3.13,3.13,0,0,1-2.47-1,4.64,4.64,0,0,1-.88-3.27V71.67h-2V69.93h2v-3Z"/><path class="cls-32" d="M1408.52,77.55l0-.68a6,6,0,0,1,1.61-4.5c1.17-1.37,1.82-2.39,1.82-3.56,0-1.32-.83-2.21-2.47-2.23a4.65,4.65,0,0,0-2.63.8l-.62-1.64a6.86,6.86,0,0,1,3.72-1c3,0,4.34,1.85,4.34,3.83,0,1.76-1,3-2.24,4.52a5.14,5.14,0,0,0-1.48,3.82l0,.68Zm-.57,3.64a1.54,1.54,0,0,1,1.56-1.64,1.63,1.63,0,1,1-1.56,1.64Z"/><path class="cls-33" d="M777.3,204.11s4.14-1.84,5.29,3.67"/><path class="cls-33" d="M133.86,187.83c2-1.59,3.37-.91,4.33,1.41"/><path class="cls-34" d="M210.1,107.23s-83.47,1.33-95.08-8.29-24.94-63.63,3.66-70.51,207.45-5.53,223.06,4.8,36.87,67-3.73,71.76-87.63,3.61-87.63,3.61-9.88,34.9-78.28,30.92C172.1,139.52,207.46,132.17,210.1,107.23Z"/><path class="cls-32" d="M351.83,42a12.32,12.32,0,0,0-3-1.46c13.47,18.66,23.8,60.4-10.8,64.45-40.61,4.75-87.63,3.61-87.63,3.61s-8.59,30.24-65,31.2l-.11,0-21.13.27s7.86,2.65,12.41,2.94c2.45.29,8.71.47,8.71.47,58.5,1.69,69.65-29.09,69.65-29.09s46.88,2.6,87.79-.88S366.64,52.8,351.83,42Z"/><path class="cls-32" d="M92.41,36.92l-3.31-.41c.07-.21,6.84-21.85,42.67-20.36l-.22,2.16C98.78,17,92.65,36.1,92.41,36.92Z"/><path class="cls-32" d="M330.1,122.64c-8.32,0-14.8-.39-15.36-.42l.32-2.16c.29,0,28.91,1.73,43.48-2.09,14.13-3.7,20.22-22.47,20.28-22.66l3.29.43c-.25.82-6.52,20.1-22.3,24.24C351.61,122.13,339.64,122.64,330.1,122.64Z"/><path class="cls-32" d="M728.66,41.16c-.13-2.45-.29-5.38-.26-7.57h-.08c-.6,2.06-1.33,4.24-2.21,6.66l-3.1,8.5H721.3l-2.84-8.34c-.83-2.48-1.53-4.74-2-6.82h-.06c0,2.19-.18,5.12-.33,7.75l-.47,7.52h-2.16l1.22-17.53h2.89l3,8.48c.73,2.16,1.32,4.08,1.77,5.9h.07c.45-1.77,1.07-3.69,1.85-5.9l3.12-8.48h2.89l1.09,17.53H729.1Z"/><path class="cls-32" d="M737.57,32.74a1.35,1.35,0,0,1-1.45,1.4,1.36,1.36,0,0,1-1.38-1.4,1.4,1.4,0,0,1,1.43-1.44A1.36,1.36,0,0,1,737.57,32.74ZM735,48.86V36.27h2.28V48.86Z"/><path class="cls-32" d="M752,30.39V45.61c0,1.11,0,2.39.1,3.25H750l-.11-2.19h0a4.65,4.65,0,0,1-4.29,2.47c-3,0-5.38-2.57-5.38-6.4,0-4.18,2.57-6.75,5.64-6.75a4.24,4.24,0,0,1,3.8,1.92h.05V30.39Zm-2.29,11a4,4,0,0,0-.11-1,3.36,3.36,0,0,0-3.3-2.65c-2.36,0-3.77,2.08-3.77,4.86,0,2.55,1.25,4.66,3.72,4.66a3.44,3.44,0,0,0,3.35-2.73,4,4,0,0,0,.11-1Z"/><path class="cls-32" d="M766.64,30.39V45.61c0,1.11,0,2.39.1,3.25h-2l-.1-2.19h-.06a4.64,4.64,0,0,1-4.29,2.47c-3,0-5.38-2.57-5.38-6.4,0-4.18,2.58-6.75,5.64-6.75a4.21,4.21,0,0,1,3.8,1.92h.05V30.39Zm-2.29,11a4,4,0,0,0-.1-1,3.37,3.37,0,0,0-3.3-2.65c-2.37,0-3.77,2.08-3.77,4.86,0,2.55,1.24,4.66,3.71,4.66a3.45,3.45,0,0,0,3.36-2.73,4,4,0,0,0,.1-1Z"/><path class="cls-32" d="M770.44,30.39h2.28V48.86h-2.28Z"/><path class="cls-32" d="M777.85,43c0,3.09,2,4.37,4.31,4.37a8.37,8.37,0,0,0,3.49-.65l.39,1.63a10.1,10.1,0,0,1-4.19.79c-3.87,0-6.19-2.55-6.19-6.35S777.9,36,781.56,36c4.11,0,5.2,3.61,5.2,5.92a10.69,10.69,0,0,1-.07,1.07Zm6.7-1.64c0-1.45-.59-3.72-3.17-3.72-2.31,0-3.33,2.13-3.51,3.72Z"/><path class="cls-32" d="M789.6,39.68c0-1.3,0-2.37-.11-3.41h2l.1,2h.08a4.32,4.32,0,0,1,4-2.31,3.7,3.7,0,0,1,3.56,2.52h.06a5.08,5.08,0,0,1,1.4-1.64,4.28,4.28,0,0,1,2.78-.88c1.66,0,4.14,1.09,4.14,5.46v7.41h-2.24V41.73c0-2.42-.89-3.87-2.73-3.87a3,3,0,0,0-2.71,2.08,3.84,3.84,0,0,0-.18,1.14v7.78h-2.23V41.32c0-2-.89-3.46-2.63-3.46a3.44,3.44,0,0,0-3,3.4v7.6H789.6Z"/><path class="cls-32" d="M818.25,48.86l-.18-1.59H818a4.67,4.67,0,0,1-3.85,1.87,3.58,3.58,0,0,1-3.85-3.61c0-3,2.71-4.71,7.57-4.68v-.26A2.6,2.6,0,0,0,815,37.67a6.32,6.32,0,0,0-3.28.94l-.52-1.51A7.87,7.87,0,0,1,815.34,36c3.85,0,4.78,2.62,4.78,5.14v4.71a17.38,17.38,0,0,0,.21,3Zm-.34-6.43c-2.49,0-5.33.39-5.33,2.84a2,2,0,0,0,2.16,2.18,3.12,3.12,0,0,0,3-2.11,2.28,2.28,0,0,0,.13-.72Z"/><path class="cls-32" d="M823.81,39.68c0-1.3,0-2.37-.1-3.41h2l.13,2.08h0A4.63,4.63,0,0,1,830.08,36c1.74,0,4.45,1,4.45,5.35v7.52h-2.29V41.6c0-2-.76-3.72-2.91-3.72a3.26,3.26,0,0,0-3.07,2.34,3.17,3.17,0,0,0-.16,1.07v7.57h-2.29Z"/><path class="cls-32" d="M711.61,74.18c0,3.09,2,4.37,4.32,4.37a8.32,8.32,0,0,0,3.48-.65l.39,1.64a10.21,10.21,0,0,1-4.18.78c-3.88,0-6.19-2.55-6.19-6.35s2.23-6.79,5.9-6.79c4.11,0,5.2,3.62,5.2,5.93a7.82,7.82,0,0,1-.08,1.07Zm6.71-1.64c0-1.46-.6-3.72-3.17-3.72-2.32,0-3.33,2.13-3.51,3.72Z"/><path class="cls-32" d="M724.35,67.47l1.8,2.7c.46.71.85,1.36,1.27,2.06h.08c.41-.75.83-1.4,1.25-2.08l1.76-2.68H733l-4.29,6.09,4.42,6.5h-2.6l-1.84-2.84c-.5-.73-.91-1.43-1.35-2.18h-.06c-.41.75-.85,1.43-1.32,2.18l-1.82,2.84H721.6l4.47-6.43-4.27-6.16Z"/><path class="cls-32" d="M735.32,71.58c0-1.61-.05-2.91-.1-4.11h2l.11,2.16h0a5,5,0,0,1,4.47-2.45c3,0,5.33,2.58,5.33,6.4,0,4.53-2.75,6.76-5.72,6.76a4.42,4.42,0,0,1-3.87-2h0V85.2h-2.27Zm2.27,3.35a5.42,5.42,0,0,0,.1.94,3.53,3.53,0,0,0,3.43,2.68c2.42,0,3.82-2,3.82-4.86,0-2.53-1.32-4.69-3.74-4.69a3.94,3.94,0,0,0-3.61,3.78Z"/><path class="cls-32" d="M750.12,61.59h2.29V80.06h-2.29Z"/><path class="cls-32" d="M767.64,73.66c0,4.65-3.22,6.68-6.26,6.68-3.41,0-6-2.49-6-6.47,0-4.21,2.76-6.69,6.24-6.69S767.64,69.81,767.64,73.66Zm-10,.13c0,2.76,1.58,4.84,3.82,4.84s3.82-2.06,3.82-4.89c0-2.13-1.06-4.84-3.77-4.84S757.66,71.4,757.66,73.79Z"/><path class="cls-32" d="M773.08,63.93a1.42,1.42,0,0,1-2.84,0,1.4,1.4,0,0,1,1.43-1.43A1.37,1.37,0,0,1,773.08,63.93Zm-2.55,16.13V67.47h2.29V80.06Z"/><path class="cls-32" d="M779.37,63.86v3.61h3.27v1.74h-3.27V76c0,1.56.44,2.44,1.71,2.44a5.1,5.1,0,0,0,1.33-.15l.1,1.71a5.37,5.37,0,0,1-2,.32,3.18,3.18,0,0,1-2.48-1,4.69,4.69,0,0,1-.88-3.27V69.21h-2V67.47h2v-3Z"/><path class="cls-32" d="M784.9,77.72a6.06,6.06,0,0,0,3,.91c1.67,0,2.44-.84,2.44-1.88s-.64-1.69-2.34-2.31c-2.26-.81-3.32-2-3.32-3.56,0-2,1.64-3.7,4.34-3.7a6.22,6.22,0,0,1,3.09.79l-.57,1.66A4.89,4.89,0,0,0,789,68.9c-1.36,0-2.11.78-2.11,1.72s.75,1.51,2.39,2.13c2.19.83,3.31,1.92,3.31,3.8,0,2.21-1.72,3.77-4.71,3.77a7.2,7.2,0,0,1-3.54-.86Z"/><path class="cls-32" d="M801,70.88c0-1.3,0-2.37-.1-3.41h2l.11,2h.07a4.36,4.36,0,0,1,4-2.32,3.74,3.74,0,0,1,3.56,2.53h0a5.1,5.1,0,0,1,1.4-1.64,4.34,4.34,0,0,1,2.79-.89c1.66,0,4.13,1.1,4.13,5.47v7.41h-2.23V72.93c0-2.42-.89-3.87-2.74-3.87a3,3,0,0,0-2.7,2.08,3.89,3.89,0,0,0-.18,1.14v7.78H808.9V72.52c0-2-.88-3.46-2.62-3.46a3.14,3.14,0,0,0-2.84,2.28,3.17,3.17,0,0,0-.18,1.12v7.6H801Z"/><path class="cls-32" d="M824,74.18c0,3.09,2,4.37,4.32,4.37a8.32,8.32,0,0,0,3.48-.65l.39,1.64a10.21,10.21,0,0,1-4.18.78c-3.88,0-6.19-2.55-6.19-6.35s2.23-6.79,5.9-6.79c4.11,0,5.2,3.62,5.2,5.93a7.82,7.82,0,0,1-.08,1.07Zm6.71-1.64c0-1.46-.6-3.72-3.17-3.72-2.32,0-3.33,2.13-3.51,3.72Z"/><path class="cls-32" d="M835.29,78.73a1.52,1.52,0,0,1,1.54-1.61,1.49,1.49,0,0,1,1.53,1.61,1.51,1.51,0,0,1-1.53,1.61A1.53,1.53,0,0,1,835.29,78.73Zm.65-3.72-.36-12.48h2.49L837.71,75Z"/><path class="cls-34" d="M755.56,97.86s-83.47,1.33-95.08-8.29-24.94-63.63,3.67-70.51,207.44-5.53,223.05,4.8,36.87,67-3.73,71.76-87.63,3.61-87.63,3.61a75.82,75.82,0,0,0-23.4,29.06A74.93,74.93,0,0,0,766,153.23S752.92,122.79,755.56,97.86Z"/><path class="cls-32" d="M897.3,32.62a12.82,12.82,0,0,0-3-1.45c13.47,18.65,23.8,60.4-10.8,64.45-40.6,4.75-87.63,3.61-87.63,3.61l4.54,5.82s46.88,2.61,87.79-.87S912.1,43.43,897.3,32.62Z"/><path class="cls-32" d="M637.87,27.55l-3.3-.41c.06-.22,6.84-21.85,42.66-20.36L677,8.94C644.25,7.59,638.11,26.73,637.87,27.55Z"/><path class="cls-32" d="M875.56,113.27c-8.31,0-14.79-.39-15.35-.43l.32-2.15c.28,0,28.9,1.73,43.47-2.09,14.13-3.71,20.22-22.48,20.28-22.66l3.3.43c-.26.82-6.53,20.1-22.31,24.23C897.07,112.76,885.11,113.27,875.56,113.27Z"/><path class="cls-32" d="M766.52,156.56s14.47-47,33.86-51.51c21-4.82-4.54-5.82-4.54-5.82S767.69,119.23,766.52,156.56Z"/><path class="cls-34" d="M1302.64,107.66s95.77,1.57,109.08-9.79,28.62-75.16-4.2-83.28-238-6.53-255.9,5.67-42.3,79.14,4.28,84.75,100.53,4.27,100.53,4.27,11.34,41.21,89.81,36.52C1346.24,145.8,1305.67,137.11,1302.64,107.66Z"/><path class="cls-32" d="M1140,30.61a14.34,14.34,0,0,1,3.46-1.72c-15.44,22-27.3,71.34,12.4,76.12,46.58,5.61,100.53,4.27,100.53,4.27s9.86,35.71,74.56,36.84l.13,0,24.24.32s-9,3.13-14.24,3.47c-2.81.34-10,.56-10,.56-67.1,2-79.89-34.36-79.89-34.36s-53.79,3.07-100.73-1S1123.05,43.37,1140,30.61Z"/><path class="cls-32" d="M1437.67,24.61l3.79-.47c-.08-.26-7.85-25.82-49-24l.25,2.55C1430.35,1,1437.39,23.65,1437.67,24.61Z"/><path class="cls-32" d="M1165,125.86c9.54,0,17-.46,17.62-.5l-.37-2.55c-.33,0-33.16,2-49.88-2.46-16.21-4.38-23.2-26.55-23.27-26.77l-3.77.51c.29,1,7.48,23.73,25.59,28.62C1140.29,125.25,1154,125.86,1165,125.86Z"/></g></g></svg>